<svg width="71" height="29" viewBox="0 0 71 29" fill="none" xmlns="http://www.w3.org/2000/svg">
<path d="M33.787 14.333V22.593H31.197V2.20201H38.069C39.726 2.17101 41.336 2.80601 42.51 3.97701C44.86 6.18801 45.004 9.91101 42.8 12.301L42.51 12.594C41.303 13.748 39.822 14.334 38.068 14.334H33.787V14.333ZM33.787 4.70701V11.829H38.133C39.099 11.861 40.033 11.471 40.692 10.772C42.044 9.35701 42.012 7.08201 40.612 5.71501C39.952 5.06501 39.066 4.70701 38.132 4.70701H33.788H33.787ZM50.349 8.18701C52.264 8.18701 53.777 8.70701 54.887 9.73101C55.998 10.756 56.545 12.186 56.545 13.991V22.592H54.067V20.657H53.954C52.876 22.251 51.459 23.047 49.673 23.047C48.16 23.047 46.873 22.592 45.858 21.682C44.86 20.836 44.298 19.584 44.329 18.267C44.329 16.82 44.877 15.682 45.955 14.82C47.033 13.959 48.482 13.536 50.285 13.536C51.829 13.536 53.085 13.829 54.083 14.381V13.78C54.083 12.886 53.696 12.04 53.02 11.455C52.328 10.837 51.443 10.495 50.526 10.495C49.077 10.495 47.935 11.113 47.098 12.349L44.812 10.902C46.035 9.09701 47.886 8.18701 50.349 8.18701ZM47 18.316C47 18.999 47.322 19.633 47.853 20.023C48.433 20.478 49.141 20.723 49.865 20.706C50.959 20.706 52.005 20.267 52.778 19.486C53.631 18.674 54.066 17.714 54.066 16.609C53.261 15.959 52.134 15.633 50.686 15.649C49.64 15.649 48.754 15.909 48.046 16.414C47.354 16.918 47 17.552 47 18.316ZM70.773 8.64201L62.114 28.722H59.442L62.661 21.698L56.98 8.64201H59.796L63.9 18.657H63.949L67.956 8.64201H70.773Z" fill="#5F6368"/>
<path d="M23.31 12.5442C23.31 11.7472 23.246 10.9512 23.117 10.1702H12.19V14.6742H18.451C18.193 16.1212 17.357 17.4222 16.133 18.2342V21.1612H19.867C22.057 19.1292 23.312 16.1212 23.312 12.5442H23.31Z" fill="#4285F4"/>
<path d="M12.19 23.9901C15.311 23.9901 17.951 22.9501 19.866 21.1611L16.132 18.2351C15.086 18.9501 13.75 19.3561 12.189 19.3561C9.163 19.3561 6.604 17.2921 5.687 14.5281H1.84V17.5521C3.804 21.5021 7.811 23.9901 12.19 23.9901Z" fill="#34A853"/>
<path d="M5.687 14.5282C5.204 13.0812 5.204 11.5032 5.687 10.0402V7.03223H1.84C0.181997 10.3322 0.181997 14.2352 1.84 17.5352L5.687 14.5282Z" fill="#FBBC04"/>
<path d="M12.19 5.21112C13.847 5.17912 15.44 5.81312 16.631 6.96712L19.947 3.61812C17.838 1.63412 15.07 0.545121 12.189 0.578121C7.811 0.578121 3.804 3.08112 1.84 7.03212L5.687 10.0561C6.604 7.27612 9.163 5.21112 12.189 5.21112H12.19Z" fill="#EA4335"/>
</svg>
